<?xml version="1.0" encoding="UTF-8" standalone="no"?>
<!DOCTYPE svg PUBLIC "-//W3C//DTD SVG 1.1//EN"
 "http://www.w3.org/Graphics/SVG/1.1/DTD/svg11.dtd">
<!-- Generated by graphviz version 5.0.0 (20220707.1540)
 -->
<!-- Title: dependencies Pages: 1 -->
<svg width="8886pt" height="247pt"
 viewBox="0.00 0.00 8886.00 246.80" xmlns="http://www.w3.org/2000/svg" xmlns:xlink="http://www.w3.org/1999/xlink">
<g id="graph0" class="graph" transform="scale(1 1) rotate(0) translate(4 242.8)">
<title>dependencies</title>
<polygon fill="white" stroke="transparent" points="-4,4 -4,-242.8 8882,-242.8 8882,4 -4,4"/>
<text text-anchor="middle" x="4439" y="-8.2" font-family="sans-serif" font-size="14.00">dependencies</text>
<g id="clust1" class="cluster">
<title>cluster_AppModule</title>
<polygon fill="none" stroke="black" stroke-dasharray="1,5" points="8,-32.8 8,-230.8 8870,-230.8 8870,-32.8 8,-32.8"/>
</g>
<g id="clust2" class="cluster">
<title>cluster_AppModule_declarations</title>
<polygon fill="none" stroke="black" points="168,-40.8 168,-92.8 8862,-92.8 8862,-40.8 168,-40.8"/>
</g>
<g id="clust49" class="cluster">
<title>cluster_AppModule_imports</title>
<polygon fill="none" stroke="black" points="16,-40.8 16,-92.8 160,-92.8 160,-40.8 16,-40.8"/>
</g>
<g id="clust51" class="cluster">
<title>cluster_AppModule_bootstrap</title>
<polygon fill="none" stroke="black" points="4224,-170.8 4224,-222.8 4348,-222.8 4348,-170.8 4224,-170.8"/>
</g>
<!-- AppComponent -->
<g id="node1" class="node">
<title>AppComponent</title>
<polygon fill="#ffffb3" stroke="black" points="8853.94,-84.8 8748.06,-84.8 8748.06,-48.8 8853.94,-48.8 8853.94,-84.8"/>
<text text-anchor="middle" x="8801" y="-62.6" font-family="Times,serif" font-size="14.00">AppComponent</text>
</g>
<!-- AppModule -->
<g id="node47" class="node">
<title>AppModule</title>
<polygon fill="#8dd3c7" stroke="black" points="4327.66,-149.8 4324.66,-153.8 4303.66,-153.8 4300.66,-149.8 4244.34,-149.8 4244.34,-113.8 4327.66,-113.8 4327.66,-149.8"/>
<text text-anchor="middle" x="4286" y="-127.6" font-family="Times,serif" font-size="14.00">AppModule</text>
</g>
<!-- AppComponent&#45;&gt;AppModule -->
<g id="edge1" class="edge">
<title>AppComponent&#45;&gt;AppModule</title>
<path fill="none" stroke="black" d="M8801,-85C8801,-109.16 8801,-148.8 8801,-148.8 8801,-148.8 4337.81,-148.8 4337.81,-148.8"/>
<polygon fill="black" stroke="black" points="4337.81,-145.3 4327.81,-148.8 4337.81,-152.3 4337.81,-145.3"/>
</g>
<!-- CredencialComponent -->
<g id="node2" class="node">
<title>CredencialComponent</title>
<polygon fill="#ffffb3" stroke="black" points="8729.97,-84.8 8588.03,-84.8 8588.03,-48.8 8729.97,-48.8 8729.97,-84.8"/>
<text text-anchor="middle" x="8659" y="-62.6" font-family="Times,serif" font-size="14.00">CredencialComponent</text>
</g>
<!-- CredencialComponent&#45;&gt;AppModule -->
<g id="edge2" class="edge">
<title>CredencialComponent&#45;&gt;AppModule</title>
<path fill="none" stroke="black" d="M8659,-84.95C8659,-108.56 8659,-146.8 8659,-146.8 8659,-146.8 4337.88,-146.8 4337.88,-146.8"/>
<polygon fill="black" stroke="black" points="4337.88,-143.3 4327.88,-146.8 4337.88,-150.3 4337.88,-143.3"/>
</g>
<!-- CredencialesInternasComponent -->
<g id="node3" class="node">
<title>CredencialesInternasComponent</title>
<polygon fill="#ffffb3" stroke="black" points="8570.22,-84.8 8371.78,-84.8 8371.78,-48.8 8570.22,-48.8 8570.22,-84.8"/>
<text text-anchor="middle" x="8471" y="-62.6" font-family="Times,serif" font-size="14.00">CredencialesInternasComponent</text>
</g>
<!-- CredencialesInternasComponent&#45;&gt;AppModule -->
<g id="edge3" class="edge">
<title>CredencialesInternasComponent&#45;&gt;AppModule</title>
<path fill="none" stroke="black" d="M8471,-85.12C8471,-108.46 8471,-145.8 8471,-145.8 8471,-145.8 4337.76,-145.8 4337.76,-145.8"/>
<polygon fill="black" stroke="black" points="4337.76,-142.3 4327.76,-145.8 4337.76,-149.3 4337.76,-142.3"/>
</g>
<!-- EditarPreDeleComponent -->
<g id="node4" class="node">
<title>EditarPreDeleComponent</title>
<polygon fill="#ffffb3" stroke="black" points="8353.13,-84.8 8192.87,-84.8 8192.87,-48.8 8353.13,-48.8 8353.13,-84.8"/>
<text text-anchor="middle" x="8273" y="-62.6" font-family="Times,serif" font-size="14.00">EditarPreDeleComponent</text>
</g>
<!-- EditarPreDeleComponent&#45;&gt;AppModule -->
<g id="edge4" class="edge">
<title>EditarPreDeleComponent&#45;&gt;AppModule</title>
<path fill="none" stroke="black" d="M8273,-85.05C8273,-107.82 8273,-143.8 8273,-143.8 8273,-143.8 4337.75,-143.8 4337.75,-143.8"/>
<polygon fill="black" stroke="black" points="4337.75,-140.3 4327.75,-143.8 4337.75,-147.3 4337.75,-140.3"/>
</g>
<!-- EditarPreinscripcionDelegadoComponent -->
<g id="node5" class="node">
<title>EditarPreinscripcionDelegadoComponent</title>
<polygon fill="#ffffb3" stroke="black" points="8175.05,-84.8 7924.95,-84.8 7924.95,-48.8 8175.05,-48.8 8175.05,-84.8"/>
<text text-anchor="middle" x="8050" y="-62.6" font-family="Times,serif" font-size="14.00">EditarPreinscripcionDelegadoComponent</text>
</g>
<!-- EditarPreinscripcionDelegadoComponent&#45;&gt;AppModule -->
<g id="edge5" class="edge">
<title>EditarPreinscripcionDelegadoComponent&#45;&gt;AppModule</title>
<path fill="none" stroke="black" d="M8050,-84.81C8050,-107.29 8050,-142.8 8050,-142.8 8050,-142.8 4337.95,-142.8 4337.95,-142.8"/>
<polygon fill="black" stroke="black" points="4337.95,-139.3 4327.95,-142.8 4337.95,-146.3 4337.95,-139.3"/>
</g>
<!-- EliminarPreinscripcionDelegadoComponent -->
<g id="node6" class="node">
<title>EliminarPreinscripcionDelegadoComponent</title>
<polygon fill="#ffffb3" stroke="black" points="7907.33,-84.8 7642.67,-84.8 7642.67,-48.8 7907.33,-48.8 7907.33,-84.8"/>
<text text-anchor="middle" x="7775" y="-62.6" font-family="Times,serif" font-size="14.00">EliminarPreinscripcionDelegadoComponent</text>
</g>
<!-- EliminarPreinscripcionDelegadoComponent&#45;&gt;AppModule -->
<g id="edge6" class="edge">
<title>EliminarPreinscripcionDelegadoComponent&#45;&gt;AppModule</title>
<path fill="none" stroke="black" d="M7775,-85.09C7775,-107.01 7775,-140.8 7775,-140.8 7775,-140.8 4337.92,-140.8 4337.92,-140.8"/>
<polygon fill="black" stroke="black" points="4337.92,-137.3 4327.92,-140.8 4337.92,-144.3 4337.92,-137.3"/>
</g>
<!-- EliminarjugadoresComponent -->
<g id="node7" class="node">
<title>EliminarjugadoresComponent</title>
<polygon fill="#ffffb3" stroke="black" points="7624.25,-84.8 7439.75,-84.8 7439.75,-48.8 7624.25,-48.8 7624.25,-84.8"/>
<text text-anchor="middle" x="7532" y="-62.6" font-family="Times,serif" font-size="14.00">EliminarjugadoresComponent</text>
</g>
<!-- EliminarjugadoresComponent&#45;&gt;AppModule -->
<g id="edge7" class="edge">
<title>EliminarjugadoresComponent&#45;&gt;AppModule</title>
<path fill="none" stroke="black" d="M7532,-84.84C7532,-106.46 7532,-139.8 7532,-139.8 7532,-139.8 4337.93,-139.8 4337.93,-139.8"/>
<polygon fill="black" stroke="black" points="4337.93,-136.3 4327.93,-139.8 4337.93,-143.3 4337.93,-136.3"/>
</g>
<!-- EquiposAprobadosComponent -->
<g id="node8" class="node">
<title>EquiposAprobadosComponent</title>
<polygon fill="#ffffb3" stroke="black" points="7421.16,-84.8 7232.84,-84.8 7232.84,-48.8 7421.16,-48.8 7421.16,-84.8"/>
<text text-anchor="middle" x="7327" y="-62.6" font-family="Times,serif" font-size="14.00">EquiposAprobadosComponent</text>
</g>
<!-- EquiposAprobadosComponent&#45;&gt;AppModule -->
<g id="edge8" class="edge">
<title>EquiposAprobadosComponent&#45;&gt;AppModule</title>
<path fill="none" stroke="black" d="M7327,-85.08C7327,-106.12 7327,-137.8 7327,-137.8 7327,-137.8 4337.83,-137.8 4337.83,-137.8"/>
<polygon fill="black" stroke="black" points="4337.83,-134.3 4327.83,-137.8 4337.83,-141.3 4337.83,-134.3"/>
</g>
<!-- EquiposMenuComponent -->
<g id="node9" class="node">
<title>EquiposMenuComponent</title>
<polygon fill="#ffffb3" stroke="black" points="7214.88,-84.8 7055.12,-84.8 7055.12,-48.8 7214.88,-48.8 7214.88,-84.8"/>
<text text-anchor="middle" x="7135" y="-62.6" font-family="Times,serif" font-size="14.00">EquiposMenuComponent</text>
</g>
<!-- EquiposMenuComponent&#45;&gt;AppModule -->
<g id="edge9" class="edge">
<title>EquiposMenuComponent&#45;&gt;AppModule</title>
<path fill="none" stroke="black" d="M7135,-84.83C7135,-105.57 7135,-136.8 7135,-136.8 7135,-136.8 4337.93,-136.8 4337.93,-136.8"/>
<polygon fill="black" stroke="black" points="4337.93,-133.3 4327.93,-136.8 4337.93,-140.3 4337.93,-133.3"/>
</g>
<!-- EquiposgeneralComponent -->
<g id="node10" class="node">
<title>EquiposgeneralComponent</title>
<polygon fill="#ffffb3" stroke="black" points="7037.41,-84.8 6868.59,-84.8 6868.59,-48.8 7037.41,-48.8 7037.41,-84.8"/>
<text text-anchor="middle" x="6953" y="-62.6" font-family="Times,serif" font-size="14.00">EquiposgeneralComponent</text>
</g>
<!-- EquiposgeneralComponent&#45;&gt;AppModule -->
<g id="edge10" class="edge">
<title>EquiposgeneralComponent&#45;&gt;AppModule</title>
<path fill="none" stroke="black" d="M6953,-85.02C6953,-105.17 6953,-134.8 6953,-134.8 6953,-134.8 4337.89,-134.8 4337.89,-134.8"/>
<polygon fill="black" stroke="black" points="4337.89,-131.3 4327.89,-134.8 4337.89,-138.3 4337.89,-131.3"/>
</g>
<!-- EvaluarPreinsComponent -->
<g id="node11" class="node">
<title>EvaluarPreinsComponent</title>
<polygon fill="#ffffb3" stroke="black" points="6850.86,-84.8 6691.14,-84.8 6691.14,-48.8 6850.86,-48.8 6850.86,-84.8"/>
<text text-anchor="middle" x="6771" y="-62.6" font-family="Times,serif" font-size="14.00">EvaluarPreinsComponent</text>
</g>
<!-- EvaluarPreinsComponent&#45;&gt;AppModule -->
<g id="edge11" class="edge">
<title>EvaluarPreinsComponent&#45;&gt;AppModule</title>
<path fill="none" stroke="black" d="M6771,-85.11C6771,-104.95 6771,-133.8 6771,-133.8 6771,-133.8 4337.83,-133.8 4337.83,-133.8"/>
<polygon fill="black" stroke="black" points="4337.83,-130.3 4327.83,-133.8 4337.83,-137.3 4337.83,-130.3"/>
</g>
<!-- EvaluarSolicitudComponent -->
<g id="node12" class="node">
<title>EvaluarSolicitudComponent</title>
<polygon fill="#ffffb3" stroke="black" points="6672.92,-84.8 6497.08,-84.8 6497.08,-48.8 6672.92,-48.8 6672.92,-84.8"/>
<text text-anchor="middle" x="6585" y="-62.6" font-family="Times,serif" font-size="14.00">EvaluarSolicitudComponent</text>
</g>
<!-- EvaluarSolicitudComponent&#45;&gt;AppModule -->
<g id="edge12" class="edge">
<title>EvaluarSolicitudComponent&#45;&gt;AppModule</title>
<path fill="none" stroke="black" d="M6585,-84.91C6585,-104.14 6585,-131.8 6585,-131.8 6585,-131.8 4337.87,-131.8 4337.87,-131.8"/>
<polygon fill="black" stroke="black" points="4337.87,-128.3 4327.87,-131.8 4337.87,-135.3 4337.87,-128.3"/>
</g>
<!-- FooterComponent -->
<g id="node13" class="node">
<title>FooterComponent</title>
<polygon fill="#ffffb3" stroke="black" points="6478.88,-84.8 6361.12,-84.8 6361.12,-48.8 6478.88,-48.8 6478.88,-84.8"/>
<text text-anchor="middle" x="6420" y="-62.6" font-family="Times,serif" font-size="14.00">FooterComponent</text>
</g>
<!-- FooterComponent&#45;&gt;AppModule -->
<g id="edge13" class="edge">
<title>FooterComponent&#45;&gt;AppModule</title>
<path fill="none" stroke="black" d="M6420,-84.97C6420,-103.89 6420,-130.8 6420,-130.8 6420,-130.8 4337.67,-130.8 4337.67,-130.8"/>
<polygon fill="black" stroke="black" points="4337.67,-127.3 4327.67,-130.8 4337.67,-134.3 4337.67,-127.3"/>
</g>
<!-- HeaderComponent -->
<g id="node14" class="node">
<title>HeaderComponent</title>
<polygon fill="#ffffb3" stroke="black" points="6342.75,-84.8 6221.25,-84.8 6221.25,-48.8 6342.75,-48.8 6342.75,-84.8"/>
<text text-anchor="middle" x="6282" y="-62.6" font-family="Times,serif" font-size="14.00">HeaderComponent</text>
</g>
<!-- HeaderComponent&#45;&gt;AppModule -->
<g id="edge14" class="edge">
<title>HeaderComponent&#45;&gt;AppModule</title>
<path fill="none" stroke="black" d="M6282,-85.07C6282,-103.36 6282,-128.8 6282,-128.8 6282,-128.8 4337.69,-128.8 4337.69,-128.8"/>
<polygon fill="black" stroke="black" points="4337.69,-125.3 4327.69,-128.8 4337.69,-132.3 4337.69,-125.3"/>
</g>
<!-- InfoEquipoGeneralComponent -->
<g id="node15" class="node">
<title>InfoEquipoGeneralComponent</title>
<polygon fill="#ffffb3" stroke="black" points="6202.9,-84.8 6013.1,-84.8 6013.1,-48.8 6202.9,-48.8 6202.9,-84.8"/>
<text text-anchor="middle" x="6108" y="-62.6" font-family="Times,serif" font-size="14.00">InfoEquipoGeneralComponent</text>
</g>
<!-- InfoEquipoGeneralComponent&#45;&gt;AppModule -->
<g id="edge15" class="edge">
<title>InfoEquipoGeneralComponent&#45;&gt;AppModule</title>
<path fill="none" stroke="black" d="M6108,-85.1C6108,-103.07 6108,-127.8 6108,-127.8 6108,-127.8 4337.92,-127.8 4337.92,-127.8"/>
<polygon fill="black" stroke="black" points="4337.92,-124.3 4327.92,-127.8 4337.92,-131.3 4337.92,-124.3"/>
</g>
<!-- InfoJugadoresGeneralComponent -->
<g id="node16" class="node">
<title>InfoJugadoresGeneralComponent</title>
<polygon fill="#ffffb3" stroke="black" points="5995.45,-84.8 5790.55,-84.8 5790.55,-48.8 5995.45,-48.8 5995.45,-84.8"/>
<text text-anchor="middle" x="5893" y="-62.6" font-family="Times,serif" font-size="14.00">InfoJugadoresGeneralComponent</text>
</g>
<!-- InfoJugadoresGeneralComponent&#45;&gt;AppModule -->
<g id="edge16" class="edge">
<title>InfoJugadoresGeneralComponent&#45;&gt;AppModule</title>
<path fill="none" stroke="black" d="M5893,-84.82C5893,-102.17 5893,-125.8 5893,-125.8 5893,-125.8 4337.75,-125.8 4337.75,-125.8"/>
<polygon fill="black" stroke="black" points="4337.75,-122.3 4327.75,-125.8 4337.75,-129.3 4337.75,-122.3"/>
</g>
<!-- InformacionPreDeleComponent -->
<g id="node17" class="node">
<title>InformacionPreDeleComponent</title>
<polygon fill="#ffffb3" stroke="black" points="5772.61,-84.8 5577.39,-84.8 5577.39,-48.8 5772.61,-48.8 5772.61,-84.8"/>
<text text-anchor="middle" x="5675" y="-62.6" font-family="Times,serif" font-size="14.00">InformacionPreDeleComponent</text>
</g>
<!-- InformacionPreDeleComponent&#45;&gt;AppModule -->
<g id="edge17" class="edge">
<title>InformacionPreDeleComponent&#45;&gt;AppModule</title>
<path fill="none" stroke="black" d="M5675,-84.83C5675,-101.86 5675,-124.8 5675,-124.8 5675,-124.8 4337.95,-124.8 4337.95,-124.8"/>
<polygon fill="black" stroke="black" points="4337.95,-121.3 4327.95,-124.8 4337.95,-128.3 4337.95,-121.3"/>
</g>
<!-- InformacionequiposComponent -->
<g id="node18" class="node">
<title>InformacionequiposComponent</title>
<polygon fill="#ffffb3" stroke="black" points="5559.08,-84.8 5364.92,-84.8 5364.92,-48.8 5559.08,-48.8 5559.08,-84.8"/>
<text text-anchor="middle" x="5462" y="-62.6" font-family="Times,serif" font-size="14.00">InformacionequiposComponent</text>
</g>
<!-- InformacionequiposComponent&#45;&gt;AppModule -->
<g id="edge18" class="edge">
<title>InformacionequiposComponent&#45;&gt;AppModule</title>
<path fill="none" stroke="black" d="M5462,-84.83C5462,-101.2 5462,-122.8 5462,-122.8 5462,-122.8 4337.85,-122.8 4337.85,-122.8"/>
<polygon fill="black" stroke="black" points="4337.85,-119.3 4327.85,-122.8 4337.85,-126.3 4337.85,-119.3"/>
</g>
<!-- InformacionjugadorComponent -->
<g id="node19" class="node">
<title>InformacionjugadorComponent</title>
<polygon fill="#ffffb3" stroke="black" points="5346.79,-84.8 5153.21,-84.8 5153.21,-48.8 5346.79,-48.8 5346.79,-84.8"/>
<text text-anchor="middle" x="5250" y="-62.6" font-family="Times,serif" font-size="14.00">InformacionjugadorComponent</text>
</g>
<!-- InformacionjugadorComponent&#45;&gt;AppModule -->
<g id="edge19" class="edge">
<title>InformacionjugadorComponent&#45;&gt;AppModule</title>
<path fill="none" stroke="black" d="M5250,-84.81C5250,-100.85 5250,-121.8 5250,-121.8 5250,-121.8 4337.73,-121.8 4337.73,-121.8"/>
<polygon fill="black" stroke="black" points="4337.73,-118.3 4327.73,-121.8 4337.73,-125.3 4337.73,-118.3"/>
</g>
<!-- InscripcionJugadorComponent -->
<g id="node20" class="node">
<title>InscripcionJugadorComponent</title>
<polygon fill="#ffffb3" stroke="black" points="5135.14,-84.8 4946.86,-84.8 4946.86,-48.8 5135.14,-48.8 5135.14,-84.8"/>
<text text-anchor="middle" x="5041" y="-62.6" font-family="Times,serif" font-size="14.00">InscripcionJugadorComponent</text>
</g>
<!-- InscripcionJugadorComponent&#45;&gt;AppModule -->
<g id="edge20" class="edge">
<title>InscripcionJugadorComponent&#45;&gt;AppModule</title>
<path fill="none" stroke="black" d="M5041,-85.04C5041,-100.37 5041,-119.8 5041,-119.8 5041,-119.8 4337.67,-119.8 4337.67,-119.8"/>
<polygon fill="black" stroke="black" points="4337.67,-116.3 4327.67,-119.8 4337.67,-123.3 4337.67,-116.3"/>
</g>
<!-- JugadoresgenealComponent -->
<g id="node21" class="node">
<title>JugadoresgenealComponent</title>
<polygon fill="#ffffb3" stroke="black" points="4928.85,-84.8 4755.15,-84.8 4755.15,-48.8 4928.85,-48.8 4928.85,-84.8"/>
<text text-anchor="middle" x="4842" y="-62.6" font-family="Times,serif" font-size="14.00">JugadoresgenealComponent</text>
</g>
<!-- JugadoresgenealComponent&#45;&gt;AppModule -->
<g id="edge21" class="edge">
<title>JugadoresgenealComponent&#45;&gt;AppModule</title>
<path fill="none" stroke="black" d="M4842,-84.99C4842,-99.98 4842,-118.8 4842,-118.8 4842,-118.8 4337.79,-118.8 4337.79,-118.8"/>
<polygon fill="black" stroke="black" points="4337.79,-115.3 4327.79,-118.8 4337.79,-122.3 4337.79,-115.3"/>
</g>
<!-- ListaEquiposComponent -->
<g id="node22" class="node">
<title>ListaEquiposComponent</title>
<polygon fill="#ffffb3" stroke="black" points="4736.71,-84.8 4581.29,-84.8 4581.29,-48.8 4736.71,-48.8 4736.71,-84.8"/>
<text text-anchor="middle" x="4659" y="-62.6" font-family="Times,serif" font-size="14.00">ListaEquiposComponent</text>
</g>
<!-- ListaEquiposComponent&#45;&gt;AppModule -->
<g id="edge22" class="edge">
<title>ListaEquiposComponent&#45;&gt;AppModule</title>
<path fill="none" stroke="black" d="M4659,-84.85C4659,-99.17 4659,-116.8 4659,-116.8 4659,-116.8 4337.7,-116.8 4337.7,-116.8"/>
<polygon fill="black" stroke="black" points="4337.7,-113.3 4327.7,-116.8 4337.7,-120.3 4337.7,-113.3"/>
</g>
<!-- ListaJugadoresComponent -->
<g id="node23" class="node">
<title>ListaJugadoresComponent</title>
<polygon fill="#ffffb3" stroke="black" points="4563.81,-84.8 4398.19,-84.8 4398.19,-48.8 4563.81,-48.8 4563.81,-84.8"/>
<text text-anchor="middle" x="4481" y="-62.6" font-family="Times,serif" font-size="14.00">ListaJugadoresComponent</text>
</g>
<!-- ListaJugadoresComponent&#45;&gt;AppModule -->
<g id="edge23" class="edge">
<title>ListaJugadoresComponent&#45;&gt;AppModule</title>
<path fill="none" stroke="black" d="M4481,-85.05C4481,-98.98 4481,-115.8 4481,-115.8 4481,-115.8 4337.83,-115.8 4337.83,-115.8"/>
<polygon fill="black" stroke="black" points="4337.83,-112.3 4327.83,-115.8 4337.83,-119.3 4337.83,-112.3"/>
</g>
<!-- ListaPreinsEvaluarComponent -->
<g id="node24" class="node">
<title>ListaPreinsEvaluarComponent</title>
<polygon fill="#ffffb3" stroke="black" points="4379.86,-84.8 4192.14,-84.8 4192.14,-48.8 4379.86,-48.8 4379.86,-84.8"/>
<text text-anchor="middle" x="4286" y="-62.6" font-family="Times,serif" font-size="14.00">ListaPreinsEvaluarComponent</text>
</g>
<!-- ListaPreinsEvaluarComponent&#45;&gt;AppModule -->
<g id="edge24" class="edge">
<title>ListaPreinsEvaluarComponent&#45;&gt;AppModule</title>
<path fill="none" stroke="black" d="M4286,-84.91C4286,-84.91 4286,-103.79 4286,-103.79"/>
<polygon fill="black" stroke="black" points="4282.5,-103.79 4286,-113.79 4289.5,-103.79 4282.5,-103.79"/>
</g>
<!-- ListaPreinscripcionDelegadoComponent -->
<g id="node25" class="node">
<title>ListaPreinscripcionDelegadoComponent</title>
<polygon fill="#ffffb3" stroke="black" points="4173.84,-84.8 3930.16,-84.8 3930.16,-48.8 4173.84,-48.8 4173.84,-84.8"/>
<text text-anchor="middle" x="4052" y="-62.6" font-family="Times,serif" font-size="14.00">ListaPreinscripcionDelegadoComponent</text>
</g>
<!-- ListaPreinscripcionDelegadoComponent&#45;&gt;AppModule -->
<g id="edge25" class="edge">
<title>ListaPreinscripcionDelegadoComponent&#45;&gt;AppModule</title>
<path fill="none" stroke="black" d="M4052,-85.05C4052,-98.98 4052,-115.8 4052,-115.8 4052,-115.8 4234.17,-115.8 4234.17,-115.8"/>
<polygon fill="black" stroke="black" points="4234.17,-119.3 4244.17,-115.8 4234.17,-112.3 4234.17,-119.3"/>
</g>
<!-- ListapreadminComponent -->
<g id="node26" class="node">
<title>ListapreadminComponent</title>
<polygon fill="#ffffb3" stroke="black" points="3912.19,-84.8 3749.81,-84.8 3749.81,-48.8 3912.19,-48.8 3912.19,-84.8"/>
<text text-anchor="middle" x="3831" y="-62.6" font-family="Times,serif" font-size="14.00">ListapreadminComponent</text>
</g>
<!-- ListapreadminComponent&#45;&gt;AppModule -->
<g id="edge26" class="edge">
<title>ListapreadminComponent&#45;&gt;AppModule</title>
<path fill="none" stroke="black" d="M3831,-84.85C3831,-99.17 3831,-116.8 3831,-116.8 3831,-116.8 4234.01,-116.8 4234.01,-116.8"/>
<polygon fill="black" stroke="black" points="4234.01,-120.3 4244.01,-116.8 4234.01,-113.3 4234.01,-120.3"/>
</g>
<!-- LoginAdminComponent -->
<g id="node27" class="node">
<title>LoginAdminComponent</title>
<polygon fill="#ffffb3" stroke="black" points="3731.66,-84.8 3578.34,-84.8 3578.34,-48.8 3731.66,-48.8 3731.66,-84.8"/>
<text text-anchor="middle" x="3655" y="-62.6" font-family="Times,serif" font-size="14.00">LoginAdminComponent</text>
</g>
<!-- LoginAdminComponent&#45;&gt;AppModule -->
<g id="edge27" class="edge">
<title>LoginAdminComponent&#45;&gt;AppModule</title>
<path fill="none" stroke="black" d="M3655,-84.99C3655,-99.98 3655,-118.8 3655,-118.8 3655,-118.8 4234.11,-118.8 4234.11,-118.8"/>
<polygon fill="black" stroke="black" points="4234.11,-122.3 4244.11,-118.8 4234.11,-115.3 4234.11,-122.3"/>
</g>
<!-- LoginComponent -->
<g id="node28" class="node">
<title>LoginComponent</title>
<polygon fill="#ffffb3" stroke="black" points="3560.27,-84.8 3445.73,-84.8 3445.73,-48.8 3560.27,-48.8 3560.27,-84.8"/>
<text text-anchor="middle" x="3503" y="-62.6" font-family="Times,serif" font-size="14.00">LoginComponent</text>
</g>
<!-- LoginComponent&#45;&gt;AppModule -->
<g id="edge28" class="edge">
<title>LoginComponent&#45;&gt;AppModule</title>
<path fill="none" stroke="black" d="M3503,-85.04C3503,-100.37 3503,-119.8 3503,-119.8 3503,-119.8 4234.18,-119.8 4234.18,-119.8"/>
<polygon fill="black" stroke="black" points="4234.18,-123.3 4244.18,-119.8 4234.18,-116.3 4234.18,-123.3"/>
</g>
<!-- MainPageComponent -->
<g id="node29" class="node">
<title>MainPageComponent</title>
<polygon fill="#ffffb3" stroke="black" points="3428.1,-84.8 3289.9,-84.8 3289.9,-48.8 3428.1,-48.8 3428.1,-84.8"/>
<text text-anchor="middle" x="3359" y="-62.6" font-family="Times,serif" font-size="14.00">MainPageComponent</text>
</g>
<!-- MainPageComponent&#45;&gt;AppModule -->
<g id="edge29" class="edge">
<title>MainPageComponent&#45;&gt;AppModule</title>
<path fill="none" stroke="black" d="M3359,-84.81C3359,-100.85 3359,-121.8 3359,-121.8 3359,-121.8 4234.06,-121.8 4234.06,-121.8"/>
<polygon fill="black" stroke="black" points="4234.06,-125.3 4244.06,-121.8 4234.06,-118.3 4234.06,-125.3"/>
</g>
<!-- MenuAdminComponent -->
<g id="node30" class="node">
<title>MenuAdminComponent</title>
<polygon fill="#ffffb3" stroke="black" points="3272.38,-84.8 3119.62,-84.8 3119.62,-48.8 3272.38,-48.8 3272.38,-84.8"/>
<text text-anchor="middle" x="3196" y="-62.6" font-family="Times,serif" font-size="14.00">MenuAdminComponent</text>
</g>
<!-- MenuAdminComponent&#45;&gt;AppModule -->
<g id="edge30" class="edge">
<title>MenuAdminComponent&#45;&gt;AppModule</title>
<path fill="none" stroke="black" d="M3196,-84.83C3196,-101.2 3196,-122.8 3196,-122.8 3196,-122.8 4234.27,-122.8 4234.27,-122.8"/>
<polygon fill="black" stroke="black" points="4234.27,-126.3 4244.27,-122.8 4234.27,-119.3 4234.27,-126.3"/>
</g>
<!-- MenuPreinscripcionDelegadoComponent -->
<g id="node31" class="node">
<title>MenuPreinscripcionDelegadoComponent</title>
<polygon fill="#ffffb3" stroke="black" points="3101,-84.8 2853,-84.8 2853,-48.8 3101,-48.8 3101,-84.8"/>
<text text-anchor="middle" x="2977" y="-62.6" font-family="Times,serif" font-size="14.00">MenuPreinscripcionDelegadoComponent</text>
</g>
<!-- MenuPreinscripcionDelegadoComponent&#45;&gt;AppModule -->
<g id="edge31" class="edge">
<title>MenuPreinscripcionDelegadoComponent&#45;&gt;AppModule</title>
<path fill="none" stroke="black" d="M2977,-84.83C2977,-101.86 2977,-124.8 2977,-124.8 2977,-124.8 4234.3,-124.8 4234.3,-124.8"/>
<polygon fill="black" stroke="black" points="4234.3,-128.3 4244.3,-124.8 4234.3,-121.3 4234.3,-128.3"/>
</g>
<!-- MiequipoComponent -->
<g id="node32" class="node">
<title>MiequipoComponent</title>
<polygon fill="#ffffb3" stroke="black" points="2834.77,-84.8 2699.23,-84.8 2699.23,-48.8 2834.77,-48.8 2834.77,-84.8"/>
<text text-anchor="middle" x="2767" y="-62.6" font-family="Times,serif" font-size="14.00">MiequipoComponent</text>
</g>
<!-- MiequipoComponent&#45;&gt;AppModule -->
<g id="edge32" class="edge">
<title>MiequipoComponent&#45;&gt;AppModule</title>
<path fill="none" stroke="black" d="M2767,-84.82C2767,-102.17 2767,-125.8 2767,-125.8 2767,-125.8 4234.19,-125.8 4234.19,-125.8"/>
<polygon fill="black" stroke="black" points="4234.19,-129.3 4244.19,-125.8 4234.19,-122.3 4234.19,-129.3"/>
</g>
<!-- ModulesComponent -->
<g id="node33" class="node">
<title>ModulesComponent</title>
<polygon fill="#ffffb3" stroke="black" points="2681.33,-84.8 2550.67,-84.8 2550.67,-48.8 2681.33,-48.8 2681.33,-84.8"/>
<text text-anchor="middle" x="2616" y="-62.6" font-family="Times,serif" font-size="14.00">ModulesComponent</text>
</g>
<!-- ModulesComponent&#45;&gt;AppModule -->
<g id="edge33" class="edge">
<title>ModulesComponent&#45;&gt;AppModule</title>
<path fill="none" stroke="black" d="M2616,-85.1C2616,-103.07 2616,-127.8 2616,-127.8 2616,-127.8 4234.3,-127.8 4234.3,-127.8"/>
<polygon fill="black" stroke="black" points="4234.3,-131.3 4244.3,-127.8 4234.3,-124.3 4234.3,-131.3"/>
</g>
<!-- NavarComponent -->
<g id="node34" class="node">
<title>NavarComponent</title>
<polygon fill="#ffffb3" stroke="black" points="2532.53,-84.8 2417.47,-84.8 2417.47,-48.8 2532.53,-48.8 2532.53,-84.8"/>
<text text-anchor="middle" x="2475" y="-62.6" font-family="Times,serif" font-size="14.00">NavarComponent</text>
</g>
<!-- NavarComponent&#45;&gt;AppModule -->
<g id="edge34" class="edge">
<title>NavarComponent&#45;&gt;AppModule</title>
<path fill="none" stroke="black" d="M2475,-85.07C2475,-103.36 2475,-128.8 2475,-128.8 2475,-128.8 4234.34,-128.8 4234.34,-128.8"/>
<polygon fill="black" stroke="black" points="4234.34,-132.3 4244.34,-128.8 4234.34,-125.3 4234.34,-132.3"/>
</g>
<!-- NotfoundComponent -->
<g id="node35" class="node">
<title>NotfoundComponent</title>
<polygon fill="#ffffb3" stroke="black" points="2399.49,-84.8 2264.51,-84.8 2264.51,-48.8 2399.49,-48.8 2399.49,-84.8"/>
<text text-anchor="middle" x="2332" y="-62.6" font-family="Times,serif" font-size="14.00">NotfoundComponent</text>
</g>
<!-- NotfoundComponent&#45;&gt;AppModule -->
<g id="edge35" class="edge">
<title>NotfoundComponent&#45;&gt;AppModule</title>
<path fill="none" stroke="black" d="M2332,-84.97C2332,-103.89 2332,-130.8 2332,-130.8 2332,-130.8 4234.28,-130.8 4234.28,-130.8"/>
<polygon fill="black" stroke="black" points="4234.28,-134.3 4244.28,-130.8 4234.28,-127.3 4234.28,-134.3"/>
</g>
<!-- PreinscipcionMenuComponent -->
<g id="node36" class="node">
<title>PreinscipcionMenuComponent</title>
<polygon fill="#ffffb3" stroke="black" points="2246.2,-84.8 2055.8,-84.8 2055.8,-48.8 2246.2,-48.8 2246.2,-84.8"/>
<text text-anchor="middle" x="2151" y="-62.6" font-family="Times,serif" font-size="14.00">PreinscipcionMenuComponent</text>
</g>
<!-- PreinscipcionMenuComponent&#45;&gt;AppModule -->
<g id="edge36" class="edge">
<title>PreinscipcionMenuComponent&#45;&gt;AppModule</title>
<path fill="none" stroke="black" d="M2151,-84.91C2151,-104.14 2151,-131.8 2151,-131.8 2151,-131.8 4234.31,-131.8 4234.31,-131.8"/>
<polygon fill="black" stroke="black" points="4234.31,-135.3 4244.31,-131.8 4234.31,-128.3 4234.31,-135.3"/>
</g>
<!-- ReactiveFormsComponent -->
<g id="node37" class="node">
<title>ReactiveFormsComponent</title>
<polygon fill="#ffffb3" stroke="black" points="2038.09,-84.8 1871.91,-84.8 1871.91,-48.8 2038.09,-48.8 2038.09,-84.8"/>
<text text-anchor="middle" x="1955" y="-62.6" font-family="Times,serif" font-size="14.00">ReactiveFormsComponent</text>
</g>
<!-- ReactiveFormsComponent&#45;&gt;AppModule -->
<g id="edge37" class="edge">
<title>ReactiveFormsComponent&#45;&gt;AppModule</title>
<path fill="none" stroke="black" d="M1955,-85.11C1955,-104.95 1955,-133.8 1955,-133.8 1955,-133.8 4234.05,-133.8 4234.05,-133.8"/>
<polygon fill="black" stroke="black" points="4234.05,-137.3 4244.05,-133.8 4234.05,-130.3 4234.05,-137.3"/>
</g>
<!-- RegisterdelegadoComponent -->
<g id="node38" class="node">
<title>RegisterdelegadoComponent</title>
<polygon fill="#ffffb3" stroke="black" points="1854.02,-84.8 1675.98,-84.8 1675.98,-48.8 1854.02,-48.8 1854.02,-84.8"/>
<text text-anchor="middle" x="1765" y="-62.6" font-family="Times,serif" font-size="14.00">RegisterdelegadoComponent</text>
</g>
<!-- RegisterdelegadoComponent&#45;&gt;AppModule -->
<g id="edge38" class="edge">
<title>RegisterdelegadoComponent&#45;&gt;AppModule</title>
<path fill="none" stroke="black" d="M1765,-85.02C1765,-105.17 1765,-134.8 1765,-134.8 1765,-134.8 4234.09,-134.8 4234.09,-134.8"/>
<polygon fill="black" stroke="black" points="4234.09,-138.3 4244.09,-134.8 4234.09,-131.3 4234.09,-138.3"/>
</g>
<!-- RegistrarEquipoComponent -->
<g id="node39" class="node">
<title>RegistrarEquipoComponent</title>
<polygon fill="#ffffb3" stroke="black" points="1657.59,-84.8 1484.41,-84.8 1484.41,-48.8 1657.59,-48.8 1657.59,-84.8"/>
<text text-anchor="middle" x="1571" y="-62.6" font-family="Times,serif" font-size="14.00">RegistrarEquipoComponent</text>
</g>
<!-- RegistrarEquipoComponent&#45;&gt;AppModule -->
<g id="edge39" class="edge">
<title>RegistrarEquipoComponent&#45;&gt;AppModule</title>
<path fill="none" stroke="black" d="M1571,-84.83C1571,-105.57 1571,-136.8 1571,-136.8 1571,-136.8 4234.17,-136.8 4234.17,-136.8"/>
<polygon fill="black" stroke="black" points="4234.17,-140.3 4244.17,-136.8 4234.17,-133.3 4234.17,-140.3"/>
</g>
<!-- SolicitudespendientesComponent -->
<g id="node40" class="node">
<title>SolicitudespendientesComponent</title>
<polygon fill="#ffffb3" stroke="black" points="1466.92,-84.8 1263.08,-84.8 1263.08,-48.8 1466.92,-48.8 1466.92,-84.8"/>
<text text-anchor="middle" x="1365" y="-62.6" font-family="Times,serif" font-size="14.00">SolicitudespendientesComponent</text>
</g>
<!-- SolicitudespendientesComponent&#45;&gt;AppModule -->
<g id="edge40" class="edge">
<title>SolicitudespendientesComponent&#45;&gt;AppModule</title>
<path fill="none" stroke="black" d="M1365,-85.08C1365,-106.12 1365,-137.8 1365,-137.8 1365,-137.8 4234.15,-137.8 4234.15,-137.8"/>
<polygon fill="black" stroke="black" points="4234.15,-141.3 4244.15,-137.8 4234.15,-134.3 4234.15,-141.3"/>
</g>
<!-- TodosjugadoresComponent -->
<g id="node41" class="node">
<title>TodosjugadoresComponent</title>
<polygon fill="#ffffb3" stroke="black" points="1245.26,-84.8 1074.74,-84.8 1074.74,-48.8 1245.26,-48.8 1245.26,-84.8"/>
<text text-anchor="middle" x="1160" y="-62.6" font-family="Times,serif" font-size="14.00">TodosjugadoresComponent</text>
</g>
<!-- TodosjugadoresComponent&#45;&gt;AppModule -->
<g id="edge41" class="edge">
<title>TodosjugadoresComponent&#45;&gt;AppModule</title>
<path fill="none" stroke="black" d="M1160,-84.84C1160,-106.46 1160,-139.8 1160,-139.8 1160,-139.8 4234.17,-139.8 4234.17,-139.8"/>
<polygon fill="black" stroke="black" points="4234.17,-143.3 4244.17,-139.8 4234.17,-136.3 4234.17,-143.3"/>
</g>
<!-- VistaAdministradorComponent -->
<g id="node42" class="node">
<title>VistaAdministradorComponent</title>
<polygon fill="#ffffb3" stroke="black" points="1056.04,-84.8 863.96,-84.8 863.96,-48.8 1056.04,-48.8 1056.04,-84.8"/>
<text text-anchor="middle" x="960" y="-62.6" font-family="Times,serif" font-size="14.00">VistaAdministradorComponent</text>
</g>
<!-- VistaAdministradorComponent&#45;&gt;AppModule -->
<g id="edge42" class="edge">
<title>VistaAdministradorComponent&#45;&gt;AppModule</title>
<path fill="none" stroke="black" d="M960,-85.09C960,-107.01 960,-140.8 960,-140.8 960,-140.8 4234.25,-140.8 4234.25,-140.8"/>
<polygon fill="black" stroke="black" points="4234.25,-144.3 4244.25,-140.8 4234.25,-137.3 4234.25,-144.3"/>
</g>
<!-- VistaDelegadoComponent -->
<g id="node43" class="node">
<title>VistaDelegadoComponent</title>
<polygon fill="#ffffb3" stroke="black" points="845.03,-84.8 680.97,-84.8 680.97,-48.8 845.03,-48.8 845.03,-84.8"/>
<text text-anchor="middle" x="763" y="-62.6" font-family="Times,serif" font-size="14.00">VistaDelegadoComponent</text>
</g>
<!-- VistaDelegadoComponent&#45;&gt;AppModule -->
<g id="edge43" class="edge">
<title>VistaDelegadoComponent&#45;&gt;AppModule</title>
<path fill="none" stroke="black" d="M763,-84.81C763,-107.29 763,-142.8 763,-142.8 763,-142.8 4234.29,-142.8 4234.29,-142.8"/>
<polygon fill="black" stroke="black" points="4234.29,-146.3 4244.29,-142.8 4234.29,-139.3 4234.29,-146.3"/>
</g>
<!-- VistaErrorComponent -->
<g id="node44" class="node">
<title>VistaErrorComponent</title>
<polygon fill="#ffffb3" stroke="black" points="663.42,-84.8 522.58,-84.8 522.58,-48.8 663.42,-48.8 663.42,-84.8"/>
<text text-anchor="middle" x="593" y="-62.6" font-family="Times,serif" font-size="14.00">VistaErrorComponent</text>
</g>
<!-- VistaErrorComponent&#45;&gt;AppModule -->
<g id="edge44" class="edge">
<title>VistaErrorComponent&#45;&gt;AppModule</title>
<path fill="none" stroke="black" d="M593,-85.05C593,-107.82 593,-143.8 593,-143.8 593,-143.8 4234.21,-143.8 4234.21,-143.8"/>
<polygon fill="black" stroke="black" points="4234.21,-147.3 4244.21,-143.8 4234.21,-140.3 4234.21,-147.3"/>
</g>
<!-- VistaEsperaComponent -->
<g id="node45" class="node">
<title>VistaEsperaComponent</title>
<polygon fill="#ffffb3" stroke="black" points="504.47,-84.8 355.53,-84.8 355.53,-48.8 504.47,-48.8 504.47,-84.8"/>
<text text-anchor="middle" x="430" y="-62.6" font-family="Times,serif" font-size="14.00">VistaEsperaComponent</text>
</g>
<!-- VistaEsperaComponent&#45;&gt;AppModule -->
<g id="edge45" class="edge">
<title>VistaEsperaComponent&#45;&gt;AppModule</title>
<path fill="none" stroke="black" d="M430,-85.12C430,-108.46 430,-145.8 430,-145.8 430,-145.8 4234.34,-145.8 4234.34,-145.8"/>
<polygon fill="black" stroke="black" points="4234.34,-149.3 4244.34,-145.8 4234.33,-142.3 4234.34,-149.3"/>
</g>
<!-- VistaPrincipalComponent -->
<g id="node46" class="node">
<title>VistaPrincipalComponent</title>
<polygon fill="#ffffb3" stroke="black" points="337.93,-84.8 176.07,-84.8 176.07,-48.8 337.93,-48.8 337.93,-84.8"/>
<text text-anchor="middle" x="257" y="-62.6" font-family="Times,serif" font-size="14.00">VistaPrincipalComponent</text>
</g>
<!-- VistaPrincipalComponent&#45;&gt;AppModule -->
<g id="edge46" class="edge">
<title>VistaPrincipalComponent&#45;&gt;AppModule</title>
<path fill="none" stroke="black" d="M257,-84.95C257,-108.56 257,-146.8 257,-146.8 257,-146.8 4234.15,-146.8 4234.15,-146.8"/>
<polygon fill="black" stroke="black" points="4234.15,-150.3 4244.15,-146.8 4234.15,-143.3 4234.15,-150.3"/>
</g>
<!-- AppComponent  -->
<g id="node49" class="node">
<title>AppComponent </title>
<polygon fill="#80b1d3" stroke="black" points="4340.44,-214.8 4231.56,-214.8 4231.56,-178.8 4340.44,-178.8 4340.44,-214.8"/>
<text text-anchor="middle" x="4286" y="-192.6" font-family="Times,serif" font-size="14.00">AppComponent </text>
</g>
<!-- AppModule&#45;&gt;AppComponent  -->
<g id="edge48" class="edge">
<title>AppModule&#45;&gt;AppComponent </title>
<path fill="none" stroke="black" stroke-dasharray="1,5" d="M4286,-149.91C4286,-149.91 4286,-168.79 4286,-168.79"/>
<polygon fill="black" stroke="black" points="4282.5,-168.79 4286,-178.79 4289.5,-168.79 4282.5,-168.79"/>
</g>
<!-- AppRoutingModule -->
<g id="node48" class="node">
<title>AppRoutingModule</title>
<polygon fill="#8dd3c7" stroke="black" points="152.28,-84.8 149.28,-88.8 128.28,-88.8 125.28,-84.8 23.72,-84.8 23.72,-48.8 152.28,-48.8 152.28,-84.8"/>
<text text-anchor="middle" x="88" y="-62.6" font-family="Times,serif" font-size="14.00">AppRoutingModule</text>
</g>
<!-- AppRoutingModule&#45;&gt;AppModule -->
<g id="edge47" class="edge">
<title>AppRoutingModule&#45;&gt;AppModule</title>
<path fill="none" stroke="black" d="M88,-85C88,-109.16 88,-148.8 88,-148.8 88,-148.8 4234.11,-148.8 4234.11,-148.8"/>
<polygon fill="black" stroke="black" points="4234.11,-152.3 4244.11,-148.8 4234.11,-145.3 4234.11,-152.3"/>
</g>
</g>
</svg>
